<svg width="17" height="17" viewBox="0 0 17 17" fill="none" xmlns="http://www.w3.org/2000/svg">
<path d="M5.66602 10.625V3.54167C5.66602 2.75926 6.30028 2.125 7.08268 2.125H14.166C14.9484 2.125 15.5827 2.75926 15.5827 3.54167V12.75C15.5827 13.5324 14.9484 14.1667 14.166 14.1667H7.24082" stroke="#4B61CD" stroke-linecap="round" stroke-linejoin="round"/>
<path d="M8.14551 5.66667H13.1038" stroke="#4B61CD" stroke-linecap="round" stroke-linejoin="round"/>
<path d="M13.1042 8.14591H11.6875" stroke="#4B61CD" stroke-linecap="round" stroke-linejoin="round"/>
<path d="M13.1035 10.6249H12.041" stroke="#4B61CD" stroke-linecap="round" stroke-linejoin="round"/>
<path d="M0.708008 11.3333L2.51465 8.32218C2.72258 7.97564 3.02502 7.69558 3.38649 7.51485L3.801 7.3076C4.09607 7.16006 4.42144 7.08325 4.75134 7.08325H5.66634" stroke="#4B61CD" stroke-linecap="round" stroke-linejoin="round"/>
<path d="M4.25 15.5833L6.23935 14.8227C6.78842 14.6128 7.2586 14.2372 7.58474 13.7482L9.72077 10.5452C10.0291 10.0828 9.96818 9.46707 9.5752 9.07411V9.07411C9.12001 8.61892 8.38202 8.61884 7.92673 9.07394L6.37504 10.625H4.95833" stroke="#4B61CD" stroke-linecap="round" stroke-linejoin="round"/>
</svg>
