<svg width="17" height="17" viewBox="0 0 17 17" fill="none" xmlns="http://www.w3.org/2000/svg">
<path d="M11.6137 5.66656C11.7681 5.66585 11.8927 5.54048 11.8927 5.38677C11.8927 5.23235 11.7674 5.10769 11.613 5.10769C11.4585 5.10769 11.3332 5.23235 11.3332 5.38677C11.3332 5.54119 11.4585 5.66656 11.613 5.66656" stroke="#151515" stroke-linecap="round" stroke-linejoin="round"/>
<path d="M11.6137 2.67033C11.7603 2.66962 11.8786 2.55062 11.8786 2.404C11.8786 2.25737 11.7596 2.13908 11.613 2.13908C11.4663 2.13908 11.3473 2.25808 11.3473 2.4047C11.3473 2.55133 11.4663 2.67033 11.6137 2.67033" stroke="#151515" stroke-linecap="round" stroke-linejoin="round"/>
<path d="M14.8606 5.38617C14.8606 5.23955 14.7416 5.12126 14.595 5.12126C14.4484 5.12126 14.3301 5.24026 14.3301 5.38688C14.3301 5.53351 14.4491 5.65251 14.5957 5.65251C14.7416 5.65251 14.8606 5.53351 14.8606 5.38617" stroke="#151515" stroke-linecap="round" stroke-linejoin="round"/>
<path d="M8.5 14.875V2.125C4.97887 2.125 2.125 4.97887 2.125 8.5C2.125 12.0211 4.97887 14.875 8.5 14.875C12.0211 14.875 14.875 12.0211 14.875 8.5H8.5" stroke="#151515" stroke-linecap="round" stroke-linejoin="round"/>
</svg>
