<svg width="24" height="24" viewBox="0 0 24 24" fill="none" xmlns="http://www.w3.org/2000/svg">
<path fill-rule="evenodd" clip-rule="evenodd" d="M9.60345 15.5741L11.4857 15.1944L12.7741 16.8611C13.006 17.1612 13.3878 17.3042 13.7598 17.2304C14.1318 17.1566 14.4301 16.8787 14.53 16.5128L16.7132 8.5144C16.8077 8.16815 16.7093 7.79781 16.4555 7.54402C16.2018 7.29022 15.8314 7.19191 15.4852 7.2864L7.48671 9.46958C7.12083 9.56945 6.84293 9.86771 6.76914 10.2397C6.69535 10.6117 6.83837 10.9935 7.13843 11.2255L8.8051 12.5138L8.42549 14.3961C8.35927 14.7244 8.46182 15.0641 8.69864 15.3009C8.93547 15.5377 9.27513 15.6403 9.60345 15.5741Z" stroke="current" stroke-width="1.5" stroke-linecap="round" stroke-linejoin="round"/>
<path fill-rule="evenodd" clip-rule="evenodd" d="M16 3C18.7614 3 21 5.23858 21 8V16C21 18.7614 18.7614 21 16 21H8C5.23858 21 3 18.7614 3 16V8C3 5.23858 5.23858 3 8 3L16 3Z" stroke="current" stroke-width="1.5" stroke-linecap="round" stroke-linejoin="round"/>
</svg>
